<svg id="Laag_1" data-name="Laag 1" xmlns="http://www.w3.org/2000/svg" viewBox="0 0 408.06 77.32"><defs><style>.cls-1{fill:#b39975;}.cls-2{fill:#2b4755;}.cls-3{fill:#263f4b;}.cls-4{fill:none;}</style></defs><title>kristofcasaert</title><path class="cls-1" d="M12.51,109.36a2.5,2.5,0,0,1-2.12-1.18V111H9.56V103.7h.83v1.12a2.48,2.48,0,0,1,2.12-1.24,2.9,2.9,0,0,1,0,5.78Zm-.15-5a2.16,2.16,0,0,0,0,4.3,2,2,0,0,0,2-2.14A2,2,0,0,0,12.36,104.32Z" transform="translate(-9.31 -33.74)"/><path class="cls-1" d="M10.47,111h-1v-7.42h1v.93a2.46,2.46,0,0,1,2-1,3,3,0,0,1,0,6,2.52,2.52,0,0,1-2-1Zm-.82-.17h.65v-3l.16.23a2.39,2.39,0,0,0,2,1.14,2.81,2.81,0,0,0,0-5.6,2.38,2.38,0,0,0-2,1.19l-.16.24v-1.31H9.65Zm2.71-2.16a2.24,2.24,0,0,1,0-4.47,2.08,2.08,0,0,1,2,2.24A2.05,2.05,0,0,1,12.36,108.71Zm0-4.3a2.07,2.07,0,0,0,0,4.13,1.88,1.88,0,0,0,1.86-2.06A1.91,1.91,0,0,0,12.36,104.41Z" transform="translate(-9.31 -33.74)"/><path class="cls-1" d="M19.21,109.37a2.84,2.84,0,0,1-2.87-2.88,2.89,2.89,0,1,1,2.87,2.88Zm0-5.06a2,2,0,0,0-2,2.16,2.08,2.08,0,0,0,2,2.16,2,2,0,0,0,2-2.14A2.1,2.1,0,0,0,19.21,104.31Z" transform="translate(-9.31 -33.74)"/><path class="cls-1" d="M19.21,109.46a3,3,0,1,1,3-3A2.94,2.94,0,0,1,19.21,109.46Zm0-5.79a2.81,2.81,0,1,0,2.8,2.8A2.78,2.78,0,0,0,19.23,103.67Zm0,5a2.17,2.17,0,0,1-2.13-2.25,2.13,2.13,0,0,1,2.11-2.24,2.18,2.18,0,0,1,2.15,2.26A2.14,2.14,0,0,1,19.23,108.72Zm0-4.32a1.94,1.94,0,0,0-1.94,2.07,2,2,0,0,0,2,2.08,2,2,0,0,0,1.95-2.06A2,2,0,0,0,19.21,104.4Z" transform="translate(-9.31 -33.74)"/><path class="cls-1" d="M26.14,109.37a2.84,2.84,0,0,1-2.87-2.88,2.89,2.89,0,1,1,2.87,2.88Zm0-5.06a2,2,0,0,0-2,2.16,2.08,2.08,0,0,0,2,2.16,2,2,0,0,0,2-2.14A2.1,2.1,0,0,0,26.14,104.31Z" transform="translate(-9.31 -33.74)"/><path class="cls-1" d="M26.14,109.46a3,3,0,1,1,3-3A2.94,2.94,0,0,1,26.14,109.46Zm0-5.79a2.81,2.81,0,1,0,2.8,2.8A2.78,2.78,0,0,0,26.16,103.67Zm0,5A2.17,2.17,0,0,1,24,106.47a2.13,2.13,0,0,1,2.11-2.24,2.19,2.19,0,0,1,2.15,2.26A2.14,2.14,0,0,1,26.16,108.72Zm0-4.32a1.94,1.94,0,0,0-1.94,2.07,2,2,0,0,0,2,2.08,2,2,0,0,0,1.95-2.06A2,2,0,0,0,26.14,104.4Z" transform="translate(-9.31 -33.74)"/><path class="cls-1" d="M31.37,109.24h-.83V103.7h.83v1.45a2.35,2.35,0,0,1,2.26-1.54v.89h-.07c-1.21,0-2.19.86-2.19,2.54Z" transform="translate(-9.31 -33.74)"/><path class="cls-1" d="M31.45,109.33h-1v-5.71h1v1.17a2.37,2.37,0,0,1,2.18-1.27h.08v1.06h-.15c-1.28,0-2.11,1-2.11,2.46Zm-.82-.17h.65V107c0-1.59.89-2.62,2.26-2.63v-.72h0a2.28,2.28,0,0,0-2.08,1.49l-.17.38v-1.77h-.65Z" transform="translate(-9.31 -33.74)"/><path class="cls-1" d="M36,107.67a.82.82,0,0,0,.93.92,1.74,1.74,0,0,0,.81-.19v.7a2.08,2.08,0,0,1-1,.24,1.42,1.42,0,0,1-1.57-1.57v-3.34H34.4v-.73h.77V102H36v1.67h1.76v.73H36Z" transform="translate(-9.31 -33.74)"/><path class="cls-1" d="M36.74,109.42a1.48,1.48,0,0,1-1.65-1.65v-3.25h-.77v-.9h.77v-1.68h1v1.68h1.75v.9H36.09v3.15c0,.57.26.83.84.83a1.7,1.7,0,0,0,.77-.18l.12-.06v.9l0,0A2.18,2.18,0,0,1,36.74,109.42Zm-2.25-5.07h.77v3.42a1.32,1.32,0,0,0,1.48,1.48,2,2,0,0,0,.91-.2v-.52a1.82,1.82,0,0,1-.72.15.91.91,0,0,1-1-1v-3.32h1.76v-.56H35.91v-1.67h-.65v1.67h-.77Z" transform="translate(-9.31 -33.74)"/><path class="cls-1" d="M41.5,108.65a2.3,2.3,0,0,0,1.75-.78l.51.46a2.85,2.85,0,0,1-2.28,1,2.9,2.9,0,0,1-.11-5.79A2.65,2.65,0,0,1,44,106.52a2.44,2.44,0,0,1,0,.26h-4.4A1.94,1.94,0,0,0,41.5,108.65Zm1.62-2.48a1.83,1.83,0,0,0-1.77-1.89,1.92,1.92,0,0,0-1.8,1.89Z" transform="translate(-9.31 -33.74)"/><path class="cls-1" d="M41.48,109.46a2.85,2.85,0,0,1-2.85-3,2.81,2.81,0,0,1,2.74-3c1.6,0,2.67,1.21,2.67,3a2.62,2.62,0,0,1,0,.27v.07H39.65a1.84,1.84,0,0,0,1.85,1.71,2.22,2.22,0,0,0,1.69-.76l.05-.06.64.57-.05.07A3,3,0,0,1,41.48,109.46Zm-.11-5.79a2.64,2.64,0,0,0-2.57,2.81,2.69,2.69,0,0,0,2.68,2.81,2.77,2.77,0,0,0,2.16-1l-.39-.35a2.36,2.36,0,0,1-1.75.75,2,2,0,0,1-2-1.95v-.1h4.41v-.17A2.55,2.55,0,0,0,41.37,103.67Zm1.84,2.58H39.46v-.09a2,2,0,0,1,1.88-2,1.91,1.91,0,0,1,1.86,2Zm-3.56-.17H43a1.71,1.71,0,0,0-1.67-1.71A1.79,1.79,0,0,0,39.65,106.08Z" transform="translate(-9.31 -33.74)"/><path class="cls-1" d="M46.23,109.24h-.82V103.7h.82v1a2.12,2.12,0,0,1,1.9-1.09,2,2,0,0,1,2.12,2.22v3.44h-.82V106a1.49,1.49,0,0,0-1.54-1.68,1.63,1.63,0,0,0-1.66,1.74Z" transform="translate(-9.31 -33.74)"/><path class="cls-1" d="M50.34,109.33h-1V106a1.4,1.4,0,0,0-1.45-1.59,1.54,1.54,0,0,0-1.57,1.65v3.26h-1v-5.71h1v.77a2.15,2.15,0,0,1,1.81-.89,2.11,2.11,0,0,1,2.21,2.3Zm-.83-.17h.66V105.8a1.94,1.94,0,0,0-2-2.13,2,2,0,0,0-1.82,1l-.16.27v-1.19h-.66v5.37h.66v-3.09a1.71,1.71,0,0,1,1.74-1.82A1.55,1.55,0,0,1,49.51,106Z" transform="translate(-9.31 -33.74)"/><path class="cls-1" d="M71.05,109.36a2.5,2.5,0,0,1-2.12-1.18v1.06H68.1v-7.82h.83v3.4a2.48,2.48,0,0,1,2.12-1.24,2.9,2.9,0,0,1,0,5.78Zm-.15-5a2.16,2.16,0,0,0,0,4.3,2,2,0,0,0,1.95-2.14A2,2,0,0,0,70.9,104.32Z" transform="translate(-9.31 -33.74)"/><path class="cls-1" d="M71.05,109.45a2.52,2.52,0,0,1-2-1v.89H68v-8h1v3.22a2.46,2.46,0,0,1,2-1,3,3,0,0,1,0,6Zm-2.21-1.55.16.23a2.39,2.39,0,0,0,2,1.14,2.81,2.81,0,0,0,0-5.6,2.38,2.38,0,0,0-2,1.19l-.16.24v-3.6h-.65v7.66h.65Zm2.06.81a2.24,2.24,0,0,1,0-4.47,2.08,2.08,0,0,1,2,2.24A2.05,2.05,0,0,1,70.9,108.71Zm0-4.3a2.07,2.07,0,0,0,0,4.13,1.88,1.88,0,0,0,1.86-2.06A1.91,1.91,0,0,0,70.9,104.41Z" transform="translate(-9.31 -33.74)"/><path class="cls-1" d="M75.55,104.76l-.25-.67a4.54,4.54,0,0,1,2-.46,2.07,2.07,0,0,1,2.36,2.23v3.38h-.79v-.83a2.45,2.45,0,0,1-2,1,1.86,1.86,0,0,1-2.06-1.73c0-1.18,1-1.81,2.36-1.81a5.86,5.86,0,0,1,1.71.24v-.19c0-1-.61-1.51-1.65-1.51A3.89,3.89,0,0,0,75.55,104.76Zm.09,2.83c0,.71.64,1.12,1.4,1.12a1.67,1.67,0,0,0,1.85-1.5v-.54a5.72,5.72,0,0,0-1.63-.23C76.22,106.44,75.64,106.89,75.64,107.59Z" transform="translate(-9.31 -33.74)"/><path class="cls-1" d="M76.87,109.45a1.94,1.94,0,0,1-2.15-1.82c0-1.19.92-1.89,2.45-1.89a5.89,5.89,0,0,1,1.62.21v-.08c0-.94-.54-1.43-1.56-1.43a3.75,3.75,0,0,0-1.65.4l-.08,0-.31-.84.07,0a4.73,4.73,0,0,1,2-.47,2.15,2.15,0,0,1,2.45,2.32v3.47h-1v-.69A2.51,2.51,0,0,1,76.87,109.45Zm.3-3.54c-1.42,0-2.28.64-2.28,1.72a1.77,1.77,0,0,0,2,1.64,2.36,2.36,0,0,0,1.94-.91l.15-.21v1h.63v-3.3c0-1.41-.79-2.15-2.28-2.15a4.51,4.51,0,0,0-1.9.42l.18.52a3.93,3.93,0,0,1,1.64-.38,1.52,1.52,0,0,1,1.73,1.6v.3l-.11,0A5.72,5.72,0,0,0,77.17,105.91ZM77,108.79c-.87,0-1.47-.49-1.47-1.2s.63-1.24,1.7-1.24a5.83,5.83,0,0,1,1.65.24l.07,0v.6A1.76,1.76,0,0,1,77,108.79Zm.23-2.27c-1,0-1.53.4-1.53,1.07s.68,1,1.3,1a1.59,1.59,0,0,0,1.77-1.41v-.47A5.41,5.41,0,0,0,77.26,106.52Z" transform="translate(-9.31 -33.74)"/><path class="cls-1" d="M81.51,109.24v-7.82h.82v7.82Z" transform="translate(-9.31 -33.74)"/><path class="cls-1" d="M82.42,109.33h-1v-8h1Zm-.82-.17h.65V101.5H81.6Z" transform="translate(-9.31 -33.74)"/><path class="cls-1" d="M88.19,103.7H89v5.54h-.81v-1a2.12,2.12,0,0,1-1.9,1.08,2,2,0,0,1-2.12-2.22V103.7H85v3.24a1.48,1.48,0,0,0,1.54,1.67,1.64,1.64,0,0,0,1.66-1.74Z" transform="translate(-9.31 -33.74)"/><path class="cls-1" d="M86.29,109.45a2.12,2.12,0,0,1-2.21-2.31v-3.52h1v3.32a1.4,1.4,0,0,0,1.45,1.59,1.55,1.55,0,0,0,1.57-1.66v-3.25h1v5.71h-1v-.78A2.14,2.14,0,0,1,86.29,109.45Zm-2-5.66v3.35a1.93,1.93,0,0,0,2,2.13,2,2,0,0,0,1.82-1l.16-.25v1.18h.65v-5.37h-.65v3.08a1.73,1.73,0,0,1-1.74,1.83,1.55,1.55,0,0,1-1.62-1.76v-3.15Z" transform="translate(-9.31 -33.74)"/><path class="cls-1" d="M92.69,109.35a3.82,3.82,0,0,1-2.29-.81l.42-.59a3.22,3.22,0,0,0,1.92.7c.66,0,1.14-.34,1.14-.88v0c0-.55-.65-.77-1.38-1s-1.83-.55-1.83-1.57v0a1.67,1.67,0,0,1,1.88-1.58,3.76,3.76,0,0,1,2,.61l-.38.62a3.14,3.14,0,0,0-1.64-.54c-.65,0-1.07.35-1.07.81v0c0,.52.69.73,1.43,1s1.78.59,1.78,1.59v0C94.67,108.74,93.8,109.35,92.69,109.35Z" transform="translate(-9.31 -33.74)"/><path class="cls-1" d="M92.69,109.44a3.85,3.85,0,0,1-2.34-.84l-.07,0,.52-.73.07.06a3.16,3.16,0,0,0,1.87.69c.63,0,1.06-.32,1.06-.8s-.57-.7-1.32-.91-1.9-.54-1.9-1.65v0a1.76,1.76,0,0,1,2-1.67,3.9,3.9,0,0,1,2,.62l.06,0-.46.77-.07,0a3,3,0,0,0-1.6-.52c-.59,0-1,.29-1,.72s.65.67,1.34.88c1,.29,1.86.65,1.86,1.68A1.83,1.83,0,0,1,92.69,109.44Zm-2.17-.92a3.74,3.74,0,0,0,2.17.74c1.13,0,1.89-.63,1.89-1.57s-.81-1.26-1.72-1.53-1.48-.45-1.48-1,.47-.91,1.15-.91a3.06,3.06,0,0,1,1.61.5l.29-.48a3.76,3.76,0,0,0-1.88-.55,1.6,1.6,0,0,0-1.8,1.5v0c0,.91.81,1.21,1.77,1.49.65.18,1.45.4,1.45,1s-.51,1-1.23,1a3.26,3.26,0,0,1-1.9-.67Z" transform="translate(-9.31 -33.74)"/><path class="cls-1" d="M97.21,107.67a.82.82,0,0,0,.93.92,1.74,1.74,0,0,0,.81-.19v.7a2.08,2.08,0,0,1-1,.24,1.42,1.42,0,0,1-1.57-1.57v-3.34h-.77v-.73h.77V102h.83v1.67H99v.73H97.21Z" transform="translate(-9.31 -33.74)"/><path class="cls-1" d="M98,109.42a1.48,1.48,0,0,1-1.65-1.65v-3.25h-.77v-.9h.77v-1.68h1v1.68h1.75v.9H97.3v3.15c0,.57.26.83.84.83a1.7,1.7,0,0,0,.77-.18l.12-.06v.9l0,0A2.18,2.18,0,0,1,98,109.42Zm-2.25-5.07h.77v3.42A1.32,1.32,0,0,0,98,109.25a2,2,0,0,0,.91-.2v-.52a1.82,1.82,0,0,1-.72.15.91.91,0,0,1-1-1v-3.32h1.76v-.56H97.12v-1.67h-.65v1.67H95.7Z" transform="translate(-9.31 -33.74)"/><path class="cls-1" d="M101.25,109.24h-.82V103.7h.82v1.45a2.36,2.36,0,0,1,2.26-1.54v.89h-.06a2.23,2.23,0,0,0-2.2,2.54Z" transform="translate(-9.31 -33.74)"/><path class="cls-1" d="M101.34,109.33h-1v-5.71h1v1.17a2.36,2.36,0,0,1,2.18-1.27h.08v1.06h-.15c-1.28,0-2.11,1-2.11,2.46Zm-.83-.17h.66V107c0-1.59.88-2.62,2.26-2.63v-.72h0a2.3,2.3,0,0,0-2.09,1.49l-.16.38v-1.77h-.66Z" transform="translate(-9.31 -33.74)"/><path class="cls-1" d="M104.83,104.76l-.25-.67a4.54,4.54,0,0,1,2-.46,2.06,2.06,0,0,1,2.36,2.23v3.38h-.79v-.83a2.45,2.45,0,0,1-2,1,1.86,1.86,0,0,1-2.06-1.73c0-1.18,1-1.81,2.37-1.81a5.84,5.84,0,0,1,1.7.24v-.19c0-1-.61-1.51-1.65-1.51A3.89,3.89,0,0,0,104.83,104.76Zm.09,2.83c0,.71.65,1.12,1.4,1.12a1.67,1.67,0,0,0,1.85-1.5v-.54a5.72,5.72,0,0,0-1.63-.23C105.5,106.44,104.92,106.89,104.92,107.59Z" transform="translate(-9.31 -33.74)"/><path class="cls-1" d="M106.15,109.45a1.94,1.94,0,0,1-2.15-1.82c0-1.19.92-1.89,2.46-1.89a5.87,5.87,0,0,1,1.61.21v-.08c0-.94-.54-1.43-1.56-1.43a3.78,3.78,0,0,0-1.65.4l-.08,0-.31-.84.07,0a4.73,4.73,0,0,1,2-.47,2.15,2.15,0,0,1,2.45,2.32v3.47h-1v-.69A2.51,2.51,0,0,1,106.15,109.45Zm.31-3.54c-1.43,0-2.29.64-2.29,1.72a1.77,1.77,0,0,0,2,1.64,2.36,2.36,0,0,0,1.94-.91l.16-.21v1h.62v-3.3c0-1.41-.79-2.15-2.28-2.15a4.51,4.51,0,0,0-1.9.42l.18.52a3.93,3.93,0,0,1,1.64-.38,1.52,1.52,0,0,1,1.74,1.6v.3l-.11,0A5.83,5.83,0,0,0,106.46,105.91Zm-.14,2.88c-.88,0-1.48-.49-1.48-1.2s.63-1.24,1.7-1.24a5.83,5.83,0,0,1,1.65.24l.07,0v.6A1.75,1.75,0,0,1,106.32,108.79Zm.22-2.27c-1,0-1.53.4-1.53,1.07s.68,1,1.31,1a1.58,1.58,0,0,0,1.76-1.41v-.47A5.41,5.41,0,0,0,106.54,106.52Z" transform="translate(-9.31 -33.74)"/><path class="cls-1" d="M115.16,109.24v-1.11a2.49,2.49,0,0,1-2.12,1.23,2.9,2.9,0,0,1,0-5.78,2.5,2.5,0,0,1,2.12,1.18v-3.34H116v7.82Zm-2-4.92a2,2,0,0,0-2,2.15,2,2,0,0,0,2,2.15,2.16,2.16,0,0,0,0-4.3Z" transform="translate(-9.31 -33.74)"/><path class="cls-1" d="M113,109.45a3,3,0,0,1,0-6,2.54,2.54,0,0,1,2,1v-3.17h1v8h-1v-.94A2.47,2.47,0,0,1,113,109.45Zm0-5.78a2.81,2.81,0,0,0,0,5.6,2.38,2.38,0,0,0,2-1.19l.16-.23v1.31h.65V101.5h-.65V105l-.16-.23A2.39,2.39,0,0,0,113,103.67Zm.15,5a2.08,2.08,0,0,1-2-2.24,2,2,0,0,1,2-2.23,2.24,2.24,0,0,1,0,4.47Zm0-4.3a1.88,1.88,0,0,0-1.86,2.06,1.91,1.91,0,0,0,1.86,2.07,2.07,2.07,0,0,0,0-4.13Z" transform="translate(-9.31 -33.74)"/><path class="cls-1" d="M120.28,108.65a2.3,2.3,0,0,0,1.75-.78l.51.46a2.86,2.86,0,0,1-2.28,1,2.9,2.9,0,0,1-.11-5.79,2.64,2.64,0,0,1,2.58,2.94,2.44,2.44,0,0,1,0,.26h-4.39A1.93,1.93,0,0,0,120.28,108.65Zm1.62-2.48a1.83,1.83,0,0,0-1.77-1.89,1.92,1.92,0,0,0-1.8,1.89Z" transform="translate(-9.31 -33.74)"/><path class="cls-1" d="M120.26,109.46a2.85,2.85,0,0,1-2.85-3,2.81,2.81,0,0,1,2.74-3c1.6,0,2.67,1.21,2.67,3a2.62,2.62,0,0,1,0,.27v.07h-4.37a1.84,1.84,0,0,0,1.85,1.71,2.18,2.18,0,0,0,1.68-.76l.06-.06.64.57,0,.07A3,3,0,0,1,120.26,109.46Zm-.11-5.79a2.64,2.64,0,0,0-2.57,2.81,2.69,2.69,0,0,0,2.68,2.81,2.77,2.77,0,0,0,2.16-1L122,108a2.36,2.36,0,0,1-1.75.75,2,2,0,0,1-2-1.95v-.1h4.41a1,1,0,0,0,0-.17A2.55,2.55,0,0,0,120.15,103.67Zm1.84,2.58h-3.76v-.09a2,2,0,0,1,1.89-2,1.9,1.9,0,0,1,1.85,2Zm-3.56-.17h3.37a1.71,1.71,0,0,0-1.67-1.71A1.79,1.79,0,0,0,118.43,106.08Z" transform="translate(-9.31 -33.74)"/><path class="cls-1" d="M126,109.35a3.88,3.88,0,0,1-2.3-.81l.42-.59a3.24,3.24,0,0,0,1.92.7c.67,0,1.15-.34,1.15-.88v0c0-.55-.66-.77-1.38-1-.87-.25-1.84-.55-1.84-1.57v0a1.68,1.68,0,0,1,1.89-1.58,3.75,3.75,0,0,1,2,.61l-.37.62a3.19,3.19,0,0,0-1.64-.54c-.66,0-1.07.35-1.07.81v0c0,.52.68.73,1.42,1s1.78.59,1.78,1.59v0A1.74,1.74,0,0,1,126,109.35Z" transform="translate(-9.31 -33.74)"/><path class="cls-1" d="M126,109.44a3.9,3.9,0,0,1-2.35-.84l-.06,0,.51-.73.07.06a3.18,3.18,0,0,0,1.87.69c.64,0,1.06-.32,1.06-.8s-.57-.7-1.32-.91-1.89-.54-1.89-1.65v0a1.76,1.76,0,0,1,2-1.67,3.87,3.87,0,0,1,2,.62l.07,0-.47.77-.07,0a3,3,0,0,0-1.59-.52c-.59,0-1,.29-1,.72s.65.67,1.35.88c1,.29,1.86.65,1.86,1.68A1.83,1.83,0,0,1,126,109.44Zm-2.18-.92a3.74,3.74,0,0,0,2.18.74c1.13,0,1.88-.63,1.88-1.57s-.81-1.26-1.71-1.53-1.49-.45-1.49-1,.48-.91,1.16-.91a3.11,3.11,0,0,1,1.61.5l.29-.48a3.79,3.79,0,0,0-1.88-.55,1.6,1.6,0,0,0-1.8,1.5v0c0,.91.8,1.21,1.77,1.49.64.18,1.44.4,1.44,1s-.5,1-1.23,1a3.28,3.28,0,0,1-1.9-.67Z" transform="translate(-9.31 -33.74)"/><path class="cls-1" d="M138.3,109.39l-1.18-1.21a3.27,3.27,0,0,1-2.46,1.17,2.16,2.16,0,0,1-2.36-2.11,2.39,2.39,0,0,1,1.82-2.18,2.41,2.41,0,0,1-.75-1.66,1.83,1.83,0,0,1,2-1.79,1.73,1.73,0,0,1,1.82,1.71c0,1-.67,1.57-1.77,2l1.72,1.75a10.6,10.6,0,0,0,.9-1.68l.69.32a10,10,0,0,1-1.08,1.89l1.31,1.34Zm-3.7-3.8c-1,.36-1.44,1-1.44,1.62a1.45,1.45,0,0,0,1.57,1.42,2.55,2.55,0,0,0,1.87-1Zm.72-3.28a1.07,1.07,0,0,0-1.14,1.09c0,.45.18.78.75,1.39.95-.32,1.45-.77,1.45-1.43A1,1,0,0,0,135.32,102.31Z" transform="translate(-9.31 -33.74)"/><path class="cls-1" d="M138.29,109.51l-1.17-1.2a3.31,3.31,0,0,1-2.46,1.13,2.23,2.23,0,0,1-2.44-2.2A2.39,2.39,0,0,1,134,105a2.46,2.46,0,0,1-.69-1.63,1.91,1.91,0,0,1,2.07-1.87,1.81,1.81,0,0,1,1.91,1.79c0,.9-.56,1.56-1.7,2l1.54,1.58a9.54,9.54,0,0,0,.84-1.57l0-.08.86.39,0,.08a10,10,0,0,1-1,1.84l1.33,1.36Zm-1.17-1.45,1.18,1.22.51-.39-1.29-1.32,0-.06a10.38,10.38,0,0,0,1-1.79l-.54-.25a9.12,9.12,0,0,1-.87,1.6l-.06.09-1.88-1.92.12,0c1.15-.41,1.71-1,1.71-1.88a1.63,1.63,0,0,0-1.73-1.62,1.75,1.75,0,0,0-1.9,1.7,2.35,2.35,0,0,0,.73,1.61l.08.09-.11,0c-1.17.46-1.76,1.17-1.76,2.1a2.07,2.07,0,0,0,2.27,2,3.15,3.15,0,0,0,2.39-1.14Zm-2.39.66a1.53,1.53,0,0,1-1.65-1.51c0-.75.53-1.35,1.49-1.7l.05,0,0,0,2.06,2.13-.05,0A2.65,2.65,0,0,1,134.73,108.72Zm-.15-3c-.86.33-1.33.86-1.33,1.52a1.37,1.37,0,0,0,1.48,1.34,2.41,2.41,0,0,0,1.75-.89Zm.33-.8,0,0c-.59-.63-.78-1-.78-1.45a1.17,1.17,0,0,1,1.23-1.18,1.1,1.1,0,0,1,1.14,1.14c0,.68-.49,1.18-1.5,1.52Zm.41-2.5a1,1,0,0,0-1,1c0,.41.16.72.69,1.3.91-.32,1.33-.75,1.33-1.34A.94.94,0,0,0,135.32,102.39Z" transform="translate(-9.31 -33.74)"/><path class="cls-1" d="M143.5,109.24v-7.82h.83v7.82Z" transform="translate(-9.31 -33.74)"/><path class="cls-1" d="M144.41,109.33h-1v-8h1Zm-.82-.17h.65V101.5h-.65Z" transform="translate(-9.31 -33.74)"/><path class="cls-1" d="M148.69,108.65a2.3,2.3,0,0,0,1.75-.78l.51.46a2.86,2.86,0,0,1-2.28,1,2.9,2.9,0,0,1-.11-5.79,2.65,2.65,0,0,1,2.59,2.94,1.23,1.23,0,0,1,0,.26h-4.39A1.94,1.94,0,0,0,148.69,108.65Zm1.62-2.48a1.83,1.83,0,0,0-1.77-1.89,1.92,1.92,0,0,0-1.8,1.89Z" transform="translate(-9.31 -33.74)"/><path class="cls-1" d="M148.67,109.46a2.85,2.85,0,0,1-2.85-3,2.81,2.81,0,0,1,2.74-3c1.6,0,2.67,1.21,2.67,3a2.62,2.62,0,0,1,0,.27v.07h-4.37a1.84,1.84,0,0,0,1.85,1.71,2.22,2.22,0,0,0,1.69-.76l.05-.06.64.57,0,.07A3,3,0,0,1,148.67,109.46Zm-.11-5.79a2.64,2.64,0,0,0-2.57,2.81,2.69,2.69,0,0,0,2.68,2.81,2.77,2.77,0,0,0,2.16-1l-.39-.35a2.36,2.36,0,0,1-1.75.75,2,2,0,0,1-2-1.95v-.1h4.41v-.17A2.55,2.55,0,0,0,148.56,103.67Zm1.84,2.58h-3.75v-.09a2,2,0,0,1,1.89-2,1.9,1.9,0,0,1,1.85,2Zm-3.56-.17h3.37a1.71,1.71,0,0,0-1.67-1.71A1.79,1.79,0,0,0,146.84,106.08Z" transform="translate(-9.31 -33.74)"/><path class="cls-1" d="M156.53,103.7h.81v5.54h-.81v-1a2.11,2.11,0,0,1-1.9,1.08,2,2,0,0,1-2.12-2.22V103.7h.83v3.24a1.47,1.47,0,0,0,1.53,1.67,1.64,1.64,0,0,0,1.66-1.74Z" transform="translate(-9.31 -33.74)"/><path class="cls-1" d="M154.63,109.45a2.11,2.11,0,0,1-2.2-2.31v-3.52h1v3.32a1.4,1.4,0,0,0,1.45,1.59,1.54,1.54,0,0,0,1.57-1.66v-3.25h1v5.71h-1v-.78A2.14,2.14,0,0,1,154.63,109.45Zm-2-5.66v3.35a1.93,1.93,0,0,0,2,2.13,2,2,0,0,0,1.83-1l.16-.25v1.18h.64v-5.37h-.64v3.08a1.74,1.74,0,0,1-1.75,1.83,1.56,1.56,0,0,1-1.62-1.76v-3.15Z" transform="translate(-9.31 -33.74)"/><path class="cls-1" d="M160,109.24h-.83V103.7H160v1a2.1,2.1,0,0,1,1.9-1.09,2,2,0,0,1,2.12,2.22v3.44h-.83V106a1.48,1.48,0,0,0-1.53-1.68,1.63,1.63,0,0,0-1.66,1.74Z" transform="translate(-9.31 -33.74)"/><path class="cls-1" d="M164.13,109.33h-1V106a1.4,1.4,0,0,0-1.45-1.59,1.54,1.54,0,0,0-1.57,1.65v3.26h-1v-5.71h1v.77a2.15,2.15,0,0,1,1.81-.89,2.11,2.11,0,0,1,2.2,2.3Zm-.82-.17H164V105.8a1.93,1.93,0,0,0-2-2.13,2,2,0,0,0-1.83,1l-.16.27v-1.19h-.65v5.37h.65v-3.09a1.71,1.71,0,0,1,1.75-1.82,1.56,1.56,0,0,1,1.62,1.76Z" transform="translate(-9.31 -33.74)"/><path class="cls-1" d="M165.83,102.49v-.91h.95v.91Zm.06,6.75V103.7h.82v5.54Z" transform="translate(-9.31 -33.74)"/><path class="cls-1" d="M166.8,109.33h-1v-5.71h1Zm-.83-.17h.65v-5.37H166Zm.89-6.58h-1.11v-1.09h1.11Zm-.94-.18h.77v-.73h-.77Z" transform="translate(-9.31 -33.74)"/><path class="cls-1" d="M169.46,109.24h-.83V103.7h.83v1a2.09,2.09,0,0,1,1.89-1.09,2,2,0,0,1,2.13,2.22v3.44h-.83V106a1.48,1.48,0,0,0-1.53-1.68,1.63,1.63,0,0,0-1.66,1.74Z" transform="translate(-9.31 -33.74)"/><path class="cls-1" d="M173.56,109.33h-1V106a1.4,1.4,0,0,0-1.44-1.59,1.55,1.55,0,0,0-1.58,1.65v3.26h-1v-5.71h1v.77a2.16,2.16,0,0,1,1.81-.89,2.11,2.11,0,0,1,2.21,2.3Zm-.82-.17h.65V105.8a1.94,1.94,0,0,0-2-2.13,2,2,0,0,0-1.82,1l-.16.27v-1.19h-.65v5.37h.65v-3.09a1.71,1.71,0,0,1,1.75-1.82,1.56,1.56,0,0,1,1.62,1.76Z" transform="translate(-9.31 -33.74)"/><path class="cls-1" d="M177.69,111a4.38,4.38,0,0,1-2.52-.77l.38-.64a3.53,3.53,0,0,0,2.13.7,1.82,1.82,0,0,0,2-2v-.65a2.64,2.64,0,0,1-2.18,1.16,2.62,2.62,0,0,1,0-5.23,2.61,2.61,0,0,1,2.17,1.12v-1h.82v4.58A2.52,2.52,0,0,1,177.69,111Zm0-6.67a1.83,1.83,0,0,0-1.92,1.88,1.88,1.88,0,0,0,1.92,1.9,1.9,1.9,0,1,0,0-3.78Z" transform="translate(-9.31 -33.74)"/><path class="cls-1" d="M177.69,111.07a4.46,4.46,0,0,1-2.57-.79l-.06,0,.46-.79.08.06a3.53,3.53,0,0,0,2.08.69,1.74,1.74,0,0,0,1.93-1.89v-.41a2.68,2.68,0,0,1-4.78-1.68,2.67,2.67,0,0,1,2.69-2.71,2.64,2.64,0,0,1,2.08,1v-.84h1v4.66A2.6,2.6,0,0,1,177.69,111.07Zm-2.4-.89a4.23,4.23,0,0,0,2.4.71,2.43,2.43,0,0,0,2.73-2.61v-4.49h-.65V105l-.15-.21a2.54,2.54,0,0,0-4.62,1.46,2.47,2.47,0,0,0,2.52,2.52,2.51,2.51,0,0,0,2.11-1.14l.15-.2v.91a1.91,1.91,0,0,1-2.1,2.06,3.62,3.62,0,0,1-2.1-.67Zm2.39-2a2,2,0,0,1-2-2,1.91,1.91,0,0,1,2-2,2,2,0,1,1,0,3.94Zm0-3.77a1.73,1.73,0,0,0-1.83,1.79,1.78,1.78,0,0,0,1.83,1.81,1.81,1.81,0,1,0,0-3.6Z" transform="translate(-9.31 -33.74)"/><path class="cls-1" d="M184.8,108.65a2.3,2.3,0,0,0,1.75-.78l.51.46a2.85,2.85,0,0,1-2.28,1,2.9,2.9,0,0,1-.11-5.79,2.65,2.65,0,0,1,2.59,2.94,2.44,2.44,0,0,1,0,.26h-4.4A1.94,1.94,0,0,0,184.8,108.65Zm1.62-2.48a1.82,1.82,0,0,0-1.77-1.89,1.92,1.92,0,0,0-1.8,1.89Z" transform="translate(-9.31 -33.74)"/><path class="cls-1" d="M184.78,109.46a2.86,2.86,0,0,1-2.85-3,2.81,2.81,0,0,1,2.74-3c1.6,0,2.67,1.21,2.67,3a2.62,2.62,0,0,1,0,.27v.07H183a1.84,1.84,0,0,0,1.85,1.71,2.21,2.21,0,0,0,1.69-.76l.06-.06.64.57-.06.07A2.94,2.94,0,0,1,184.78,109.46Zm-.11-5.79a2.64,2.64,0,0,0-2.57,2.81,2.69,2.69,0,0,0,2.68,2.81,2.77,2.77,0,0,0,2.16-1l-.39-.35a2.34,2.34,0,0,1-1.75.75,2,2,0,0,1-2-1.95v-.1h4.41v-.17A2.55,2.55,0,0,0,184.67,103.67Zm1.85,2.58h-3.76v-.09a2,2,0,0,1,1.88-2,1.9,1.9,0,0,1,1.86,2Zm-3.57-.17h3.38a1.72,1.72,0,0,0-1.68-1.71A1.8,1.8,0,0,0,183,106.08Z" transform="translate(-9.31 -33.74)"/><path class="cls-1" d="M189.53,109.24h-.82V103.7h.82v1a2.12,2.12,0,0,1,1.9-1.09,2,2,0,0,1,2.12,2.22v3.44h-.82V106a1.48,1.48,0,0,0-1.53-1.68,1.64,1.64,0,0,0-1.67,1.74Z" transform="translate(-9.31 -33.74)"/><path class="cls-1" d="M193.64,109.33h-1V106a1.4,1.4,0,0,0-1.44-1.59,1.55,1.55,0,0,0-1.58,1.65v3.26h-1v-5.71h1v.77a2.15,2.15,0,0,1,1.81-.89,2.11,2.11,0,0,1,2.21,2.3Zm-.83-.17h.66V105.8a1.94,1.94,0,0,0-2-2.13,2,2,0,0,0-1.82,1l-.16.27v-1.19h-.66v5.37h.66v-3.09a1.71,1.71,0,0,1,1.75-1.82,1.55,1.55,0,0,1,1.61,1.76Z" transform="translate(-9.31 -33.74)"/><path class="cls-1" d="M217.75,103.58a2,2,0,0,1,2.06,2.23v3.43H219V106c0-1.08-.54-1.68-1.44-1.68a1.56,1.56,0,0,0-1.53,1.72v3.19h-.81V106c0-1-.55-1.65-1.43-1.65a1.6,1.6,0,0,0-1.54,1.75v3.16h-.83V103.7h.83v.93a2,2,0,0,1,1.79-1,1.89,1.89,0,0,1,1.78,1.11A2.2,2.2,0,0,1,217.75,103.58Z" transform="translate(-9.31 -33.74)"/><path class="cls-1" d="M219.89,109.33h-1V106c0-1-.5-1.59-1.36-1.59a1.45,1.45,0,0,0-1.44,1.63v3.28h-1V106c0-1-.5-1.56-1.34-1.56a1.52,1.52,0,0,0-1.45,1.66v3.25h-1v-5.71h1v.75a2,2,0,0,1,1.7-.87,2,2,0,0,1,1.79,1,2.24,2.24,0,0,1,1.94-1,2.07,2.07,0,0,1,2.14,2.31Zm-.82-.17h.65v-3.35a1.91,1.91,0,0,0-2-2.14,2.12,2.12,0,0,0-1.88,1.07l-.08.12-.07-.13a1.79,1.79,0,0,0-1.7-1.06,2,2,0,0,0-1.72,1l-.16.24v-1.13h-.65v5.37h.65v-3.08a1.68,1.68,0,0,1,1.63-1.83c.93,0,1.51.66,1.51,1.73v3.18h.65v-3.11a1.64,1.64,0,0,1,1.61-1.8c1,0,1.53.66,1.53,1.76Z" transform="translate(-9.31 -33.74)"/><path class="cls-1" d="M224.05,108.65a2.28,2.28,0,0,0,1.74-.78l.52.46a2.86,2.86,0,0,1-2.28,1,2.9,2.9,0,0,1-.11-5.79,2.64,2.64,0,0,1,2.58,2.94,2.44,2.44,0,0,1,0,.26H222.1A1.93,1.93,0,0,0,224.05,108.65Zm1.62-2.48a1.83,1.83,0,0,0-1.77-1.89,1.91,1.91,0,0,0-1.8,1.89Z" transform="translate(-9.31 -33.74)"/><path class="cls-1" d="M224,109.46a2.86,2.86,0,0,1-2.86-3,2.81,2.81,0,0,1,2.75-3,2.71,2.71,0,0,1,2.67,3,2.62,2.62,0,0,1,0,.27v.07h-4.38a1.85,1.85,0,0,0,1.86,1.71,2.18,2.18,0,0,0,1.68-.76l.06-.06.64.57-.06.07A2.92,2.92,0,0,1,224,109.46Zm-.11-5.79a2.64,2.64,0,0,0-2.57,2.81,2.69,2.69,0,0,0,2.68,2.81,2.78,2.78,0,0,0,2.16-1l-.39-.35a2.36,2.36,0,0,1-1.75.75,2,2,0,0,1-2-1.95v-.1h4.41v-.17A2.55,2.55,0,0,0,223.92,103.67Zm1.84,2.58H222v-.09a2,2,0,0,1,1.89-2,1.9,1.9,0,0,1,1.85,2Zm-3.57-.17h3.38a1.72,1.72,0,0,0-1.67-1.71A1.8,1.8,0,0,0,222.19,106.08Z" transform="translate(-9.31 -33.74)"/><path class="cls-1" d="M229.07,107.67a.82.82,0,0,0,.93.92,1.71,1.71,0,0,0,.8-.19v.7a2.07,2.07,0,0,1-1,.24,1.42,1.42,0,0,1-1.57-1.57v-3.34h-.77v-.73h.77V102h.83v1.67h1.75v.73h-1.75Z" transform="translate(-9.31 -33.74)"/><path class="cls-1" d="M229.81,109.42a1.48,1.48,0,0,1-1.65-1.65v-3.25h-.78v-.9h.78v-1.68h1v1.68h1.76v.9h-1.76v3.15c0,.57.27.83.85.83a1.7,1.7,0,0,0,.77-.18l.12-.06v.9l0,0A2.11,2.11,0,0,1,229.81,109.42Zm-2.25-5.07h.77v3.42a1.32,1.32,0,0,0,1.48,1.48,2,2,0,0,0,.91-.2v-.52a1.86,1.86,0,0,1-.72.15.91.91,0,0,1-1-1v-3.32h1.76v-.56H229v-1.67h-.65v1.67h-.77Z" transform="translate(-9.31 -33.74)"/><path class="cls-1" d="M232.61,104.76l-.25-.67a4.56,4.56,0,0,1,2-.46,2.06,2.06,0,0,1,2.35,2.23v3.38h-.79v-.83a2.44,2.44,0,0,1-2,1,1.86,1.86,0,0,1-2.07-1.73c0-1.18,1-1.81,2.37-1.81a5.84,5.84,0,0,1,1.7.24v-.19c0-1-.61-1.51-1.65-1.51A3.92,3.92,0,0,0,232.61,104.76Zm.09,2.83c0,.71.65,1.12,1.4,1.12a1.67,1.67,0,0,0,1.85-1.5v-.54a5.72,5.72,0,0,0-1.63-.23C233.28,106.44,232.7,106.89,232.7,107.59Z" transform="translate(-9.31 -33.74)"/><path class="cls-1" d="M233.94,109.45a1.94,1.94,0,0,1-2.16-1.82c0-1.19.92-1.89,2.46-1.89a5.87,5.87,0,0,1,1.61.21v-.08c0-.94-.54-1.43-1.56-1.43a3.78,3.78,0,0,0-1.65.4l-.08,0-.31-.84.07,0a4.74,4.74,0,0,1,2.06-.47,2.15,2.15,0,0,1,2.44,2.32v3.47h-1v-.69A2.5,2.5,0,0,1,233.94,109.45Zm.3-3.54c-1.43,0-2.29.64-2.29,1.72a1.77,1.77,0,0,0,2,1.64,2.36,2.36,0,0,0,1.93-.91l.16-.21v1h.62v-3.3a2,2,0,0,0-2.27-2.15,4.52,4.52,0,0,0-1.91.42l.19.52a3.84,3.84,0,0,1,1.63-.38,1.52,1.52,0,0,1,1.74,1.6v.3l-.11,0A5.83,5.83,0,0,0,234.24,105.91Zm-.14,2.88c-.87,0-1.48-.49-1.48-1.2s.63-1.24,1.7-1.24a6,6,0,0,1,1.66.24l.06,0v.6A1.75,1.75,0,0,1,234.1,108.79Zm.22-2.27c-1,0-1.53.4-1.53,1.07s.68,1,1.31,1a1.58,1.58,0,0,0,1.76-1.41v-.47A5.41,5.41,0,0,0,234.32,106.52Z" transform="translate(-9.31 -33.74)"/><path class="cls-1" d="M238.82,104.76l-.25-.67a4.56,4.56,0,0,1,2-.46,2.06,2.06,0,0,1,2.35,2.23v3.38h-.79v-.83a2.44,2.44,0,0,1-2,1,1.86,1.86,0,0,1-2.07-1.73c0-1.18,1-1.81,2.37-1.81a5.84,5.84,0,0,1,1.7.24v-.19c0-1-.61-1.51-1.65-1.51A3.92,3.92,0,0,0,238.82,104.76Zm.09,2.83c0,.71.65,1.12,1.4,1.12a1.67,1.67,0,0,0,1.85-1.5v-.54a5.72,5.72,0,0,0-1.63-.23C239.49,106.44,238.91,106.89,238.91,107.59Z" transform="translate(-9.31 -33.74)"/><path class="cls-1" d="M240.15,109.45a1.94,1.94,0,0,1-2.16-1.82c0-1.19.92-1.89,2.46-1.89a5.87,5.87,0,0,1,1.61.21v-.08c0-.92-.55-1.43-1.56-1.43a3.78,3.78,0,0,0-1.65.4l-.08,0-.31-.84.07,0a4.74,4.74,0,0,1,2.06-.47,2.15,2.15,0,0,1,2.44,2.32v3.47h-1v-.69A2.5,2.5,0,0,1,240.15,109.45Zm.3-3.54c-1.43,0-2.29.64-2.29,1.72a1.77,1.77,0,0,0,2,1.64,2.36,2.36,0,0,0,1.93-.91l.16-.21v1h.62v-3.3a2,2,0,0,0-2.27-2.15,4.52,4.52,0,0,0-1.91.42l.19.52a3.84,3.84,0,0,1,1.63-.38,1.52,1.52,0,0,1,1.74,1.6v.3l-.11,0A5.83,5.83,0,0,0,240.45,105.91Zm-.14,2.88c-.87,0-1.48-.49-1.48-1.2s.63-1.24,1.7-1.24a6,6,0,0,1,1.66.24l.06,0v.6A1.75,1.75,0,0,1,240.31,108.79Zm.22-2.27c-1,0-1.53.4-1.53,1.07s.68,1,1.31,1a1.59,1.59,0,0,0,1.77-1.41v-.47A5.53,5.53,0,0,0,240.53,106.52Z" transform="translate(-9.31 -33.74)"/><path class="cls-1" d="M244.78,109.24v-7.82h.83v7.82Z" transform="translate(-9.31 -33.74)"/><path class="cls-1" d="M245.69,109.33h-1v-8h1Zm-.82-.17h.65V101.5h-.65Z" transform="translate(-9.31 -33.74)"/><path class="cls-1" d="M250,109.37a2.9,2.9,0,1,1,2.22-4.8l-.54.58a2.26,2.26,0,0,0-1.69-.84,2.17,2.17,0,0,0,.06,4.32,2.29,2.29,0,0,0,1.69-.82l.52.49A2.84,2.84,0,0,1,250,109.37Z" transform="translate(-9.31 -33.74)"/><path class="cls-1" d="M250,109.46a3,3,0,0,1,0-6,3,3,0,0,1,2.29,1l.05.06-.67.7-.06-.06a2.15,2.15,0,0,0-1.62-.81,2,2,0,0,0-1.89,2.07,2,2,0,0,0,1.95,2.08,2.22,2.22,0,0,0,1.63-.8l.06-.06.64.6-.05.07A3,3,0,0,1,250,109.46Zm0-5.79a2.68,2.68,0,0,0-2,.84,2.86,2.86,0,0,0,0,3.95,2.71,2.71,0,0,0,2,.83,2.76,2.76,0,0,0,2.14-1l-.4-.37a2.31,2.31,0,0,1-1.69.79,2.17,2.17,0,0,1-2.13-2.25,2.14,2.14,0,0,1,2.07-2.24,2.28,2.28,0,0,1,1.68.79l.43-.45A2.75,2.75,0,0,0,250,103.67Z" transform="translate(-9.31 -33.74)"/><path class="cls-1" d="M256,109.37a2.84,2.84,0,0,1-2.87-2.88,2.89,2.89,0,1,1,2.87,2.88Zm0-5.06a2,2,0,0,0-2,2.16,2.08,2.08,0,0,0,2.05,2.16,2,2,0,0,0,2-2.14A2.1,2.1,0,0,0,256,104.31Z" transform="translate(-9.31 -33.74)"/><path class="cls-1" d="M256,109.46a3,3,0,1,1,3-3A2.94,2.94,0,0,1,256,109.46Zm0-5.79a2.81,2.81,0,1,0,2.8,2.8A2.79,2.79,0,0,0,256,103.67Zm0,5a2.17,2.17,0,0,1-2.13-2.25,2.13,2.13,0,0,1,2.11-2.24,2.18,2.18,0,0,1,2.14,2.26A2.13,2.13,0,0,1,256,108.72Zm0-4.32a1.94,1.94,0,0,0-1.94,2.07,2,2,0,0,0,2,2.08,2,2,0,0,0,1.95-2.06A2,2,0,0,0,256,104.4Z" transform="translate(-9.31 -33.74)"/><path class="cls-1" d="M261.24,109.24h-.82V103.7h.82v1a2.12,2.12,0,0,1,1.9-1.09,2,2,0,0,1,2.12,2.22v3.44h-.82V106a1.48,1.48,0,0,0-1.53-1.68,1.64,1.64,0,0,0-1.67,1.74Z" transform="translate(-9.31 -33.74)"/><path class="cls-1" d="M265.35,109.33h-1V106a1.4,1.4,0,0,0-1.44-1.59,1.55,1.55,0,0,0-1.58,1.65v3.26h-1v-5.71h1v.77a2.15,2.15,0,0,1,1.81-.89,2.11,2.11,0,0,1,2.21,2.3Zm-.83-.17h.66V105.8a1.94,1.94,0,0,0-2-2.13,2,2,0,0,0-1.82,1l-.16.27v-1.19h-.66v5.37h.66v-3.09a1.71,1.71,0,0,1,1.75-1.82,1.55,1.55,0,0,1,1.61,1.76Z" transform="translate(-9.31 -33.74)"/><path class="cls-1" d="M268.86,109.35a3.82,3.82,0,0,1-2.29-.81L267,108a3.24,3.24,0,0,0,1.92.7c.67,0,1.15-.34,1.15-.88v0c0-.55-.65-.77-1.38-1s-1.84-.55-1.84-1.57v0a1.68,1.68,0,0,1,1.89-1.58,3.72,3.72,0,0,1,2,.61l-.37.62a3.19,3.19,0,0,0-1.64-.54c-.66,0-1.07.35-1.07.81v0c0,.52.68.73,1.42,1s1.78.59,1.78,1.59v0A1.74,1.74,0,0,1,268.86,109.35Z" transform="translate(-9.31 -33.74)"/><path class="cls-1" d="M268.86,109.44a3.9,3.9,0,0,1-2.35-.84l-.06,0,.51-.73.07.06a3.18,3.18,0,0,0,1.87.69c.64,0,1.06-.32,1.06-.8s-.57-.7-1.32-.91-1.89-.54-1.89-1.65v0a1.76,1.76,0,0,1,2-1.67,3.87,3.87,0,0,1,2,.62l.07,0-.46.77-.08,0a3,3,0,0,0-1.59-.52c-.59,0-1,.29-1,.72s.66.67,1.35.88c.95.29,1.86.65,1.86,1.68A1.83,1.83,0,0,1,268.86,109.44Zm-2.18-.92a3.74,3.74,0,0,0,2.18.74c1.13,0,1.88-.63,1.88-1.57s-.81-1.26-1.71-1.53-1.49-.45-1.49-1,.48-.91,1.16-.91a3.11,3.11,0,0,1,1.61.5l.29-.48a3.79,3.79,0,0,0-1.88-.55,1.6,1.6,0,0,0-1.8,1.5v0c0,.91.8,1.21,1.77,1.49.64.18,1.44.4,1.44,1s-.5,1-1.23,1a3.28,3.28,0,0,1-1.9-.67Z" transform="translate(-9.31 -33.74)"/><path class="cls-1" d="M273.38,107.67a.82.82,0,0,0,.93.92,1.71,1.71,0,0,0,.8-.19v.7a2.08,2.08,0,0,1-1,.24,1.41,1.41,0,0,1-1.56-1.57v-3.34h-.77v-.73h.77V102h.83v1.67h1.75v.73h-1.75Z" transform="translate(-9.31 -33.74)"/><path class="cls-1" d="M274.11,109.42a1.49,1.49,0,0,1-1.65-1.65v-3.25h-.77v-.9h.77v-1.68h1v1.68h1.76v.9h-1.76v3.15c0,.57.27.83.85.83a1.63,1.63,0,0,0,.76-.18l.13-.06v.9l-.05,0A2.13,2.13,0,0,1,274.11,109.42Zm-2.25-5.07h.77v3.42a1.33,1.33,0,0,0,1.48,1.48,2,2,0,0,0,.91-.2v-.52a1.78,1.78,0,0,1-.71.15.91.91,0,0,1-1-1v-3.32h1.76v-.56h-1.76v-1.67h-.66v1.67h-.77Z" transform="translate(-9.31 -33.74)"/><path class="cls-1" d="M277.42,109.24h-.83V103.7h.83v1.45a2.36,2.36,0,0,1,2.26-1.54v.89h-.06c-1.22,0-2.2.86-2.2,2.54Z" transform="translate(-9.31 -33.74)"/><path class="cls-1" d="M277.5,109.33h-1v-5.71h1v1.17a2.38,2.38,0,0,1,2.18-1.27h.09v1.06h-.15c-1.29,0-2.12,1-2.12,2.46Zm-.82-.17h.65V107c0-1.59.89-2.62,2.26-2.63v-.72h0a2.29,2.29,0,0,0-2.09,1.49l-.17.38v-1.77h-.65Z" transform="translate(-9.31 -33.74)"/><path class="cls-1" d="M284.87,103.7h.81v5.54h-.81v-1a2.11,2.11,0,0,1-1.9,1.08,2,2,0,0,1-2.12-2.22V103.7h.83v3.24a1.47,1.47,0,0,0,1.53,1.67,1.64,1.64,0,0,0,1.66-1.74Z" transform="translate(-9.31 -33.74)"/><path class="cls-1" d="M283,109.45a2.11,2.11,0,0,1-2.2-2.31v-3.52h1v3.32a1.4,1.4,0,0,0,1.45,1.59,1.54,1.54,0,0,0,1.57-1.66v-3.25h1v5.71h-1v-.78A2.14,2.14,0,0,1,283,109.45Zm-2-5.66v3.35a1.93,1.93,0,0,0,2,2.13,2,2,0,0,0,1.83-1L285,108v1.18h.64v-5.37H285v3.08a1.74,1.74,0,0,1-1.75,1.83,1.56,1.56,0,0,1-1.62-1.76v-3.15Z" transform="translate(-9.31 -33.74)"/><path class="cls-1" d="M290,109.37a2.9,2.9,0,1,1,2.22-4.8l-.55.58a2.24,2.24,0,0,0-1.68-.84,2,2,0,0,0-2,2.16,2.07,2.07,0,0,0,2,2.16,2.3,2.3,0,0,0,1.7-.82l.52.49A2.86,2.86,0,0,1,290,109.37Z" transform="translate(-9.31 -33.74)"/><path class="cls-1" d="M290,109.46a2.92,2.92,0,0,1-2.93-3,3,3,0,0,1,2.93-3,2.92,2.92,0,0,1,2.28,1l.06.06-.67.7-.06-.06a2.17,2.17,0,0,0-1.62-.81,2,2,0,0,0-1.9,2.07,2,2,0,0,0,1.95,2.08,2.2,2.2,0,0,0,1.63-.8l.06-.06.65.6-.05.07A3,3,0,0,1,290,109.46Zm0-5.79a2.68,2.68,0,0,0-2,.84,2.86,2.86,0,0,0,0,3.95,2.71,2.71,0,0,0,2,.83,2.76,2.76,0,0,0,2.14-1l-.4-.37a2.32,2.32,0,0,1-1.7.79,2.16,2.16,0,0,1-2.12-2.25,2.14,2.14,0,0,1,2.07-2.24,2.3,2.3,0,0,1,1.68.79l.43-.45A2.76,2.76,0,0,0,290,103.67Z" transform="translate(-9.31 -33.74)"/><path class="cls-1" d="M294.78,107.67a.82.82,0,0,0,.93.92,1.74,1.74,0,0,0,.81-.19v.7a2.08,2.08,0,0,1-1,.24,1.41,1.41,0,0,1-1.56-1.57v-3.34h-.78v-.73H294V102h.82v1.67h1.76v.73h-1.76Z" transform="translate(-9.31 -33.74)"/><path class="cls-1" d="M295.52,109.42a1.49,1.49,0,0,1-1.65-1.65v-3.25h-.77v-.9h.77v-1.68h1v1.68h1.76v.9h-1.76v3.15c0,.57.27.83.84.83a1.64,1.64,0,0,0,.77-.18l.12-.06v.9l0,0A2.13,2.13,0,0,1,295.52,109.42Zm-2.25-5.07H294v3.42a1.33,1.33,0,0,0,1.48,1.48,2,2,0,0,0,.91-.2v-.52a1.79,1.79,0,0,1-.72.15.9.9,0,0,1-1-1v-3.32h1.75v-.56H294.7v-1.67H294v1.67h-.77Z" transform="translate(-9.31 -33.74)"/><path class="cls-1" d="M298,102.49v-.91H299v.91Zm.06,6.75V103.7h.82v5.54Z" transform="translate(-9.31 -33.74)"/><path class="cls-1" d="M299,109.33h-1v-5.71h1Zm-.83-.17h.66v-5.37h-.66Zm.89-6.58h-1.11v-1.09h1.11Zm-.94-.18h.77v-.73h-.77Z" transform="translate(-9.31 -33.74)"/><path class="cls-1" d="M303.26,108.65a2.29,2.29,0,0,0,1.75-.78l.52.46a2.88,2.88,0,0,1-2.29,1,2.9,2.9,0,0,1-.1-5.79,2.64,2.64,0,0,1,2.58,2.94,2.44,2.44,0,0,1,0,.26h-4.4A1.94,1.94,0,0,0,303.26,108.65Zm1.62-2.48a1.82,1.82,0,0,0-1.76-1.89,1.92,1.92,0,0,0-1.81,1.89Z" transform="translate(-9.31 -33.74)"/><path class="cls-1" d="M303.24,109.46a2.86,2.86,0,0,1-2.85-3,2.81,2.81,0,0,1,2.75-3c1.59,0,2.66,1.21,2.66,3a2.62,2.62,0,0,1,0,.27v.07h-4.38a1.85,1.85,0,0,0,1.85,1.71,2.21,2.21,0,0,0,1.69-.76l.06-.06.64.57-.06.07A2.94,2.94,0,0,1,303.24,109.46Zm-.1-5.79a2.64,2.64,0,0,0-2.58,2.81,2.69,2.69,0,0,0,2.68,2.81,2.77,2.77,0,0,0,2.16-1L305,108a2.36,2.36,0,0,1-1.76.75,2,2,0,0,1-2-1.95v-.1h4.41v-.17A2.55,2.55,0,0,0,303.14,103.67Zm1.84,2.58h-3.76v-.09a2,2,0,0,1,1.88-2,1.9,1.9,0,0,1,1.86,2Zm-3.57-.17h3.38a1.72,1.72,0,0,0-1.68-1.71A1.8,1.8,0,0,0,301.41,106.08Z" transform="translate(-9.31 -33.74)"/><path class="cls-1" d="M309,109.35a3.82,3.82,0,0,1-2.29-.81l.42-.59a3.22,3.22,0,0,0,1.92.7c.66,0,1.14-.34,1.14-.88v0c0-.55-.65-.77-1.38-1s-1.83-.55-1.83-1.57v0a1.67,1.67,0,0,1,1.88-1.58,3.76,3.76,0,0,1,2,.61l-.38.62a3.14,3.14,0,0,0-1.64-.54c-.65,0-1.07.35-1.07.81v0c0,.52.69.73,1.43,1s1.77.59,1.77,1.59v0C311,108.74,310.11,109.35,309,109.35Z" transform="translate(-9.31 -33.74)"/><path class="cls-1" d="M309,109.44a3.85,3.85,0,0,1-2.34-.84l-.07,0,.52-.73.07.06a3.16,3.16,0,0,0,1.87.69c.63,0,1.06-.32,1.06-.8s-.58-.7-1.32-.91-1.9-.54-1.9-1.65v0a1.76,1.76,0,0,1,2-1.67,3.84,3.84,0,0,1,2,.62l.07,0-.46.77-.07,0a3,3,0,0,0-1.6-.52c-.59,0-1,.29-1,.72s.65.67,1.34.88c.95.29,1.86.65,1.86,1.68A1.83,1.83,0,0,1,309,109.44Zm-2.17-.92a3.71,3.71,0,0,0,2.17.74c1.13,0,1.89-.63,1.89-1.57s-.81-1.26-1.72-1.53h0c-.75-.23-1.46-.45-1.46-1s.47-.91,1.15-.91a3.06,3.06,0,0,1,1.61.5l.29-.48a3.76,3.76,0,0,0-1.88-.55,1.6,1.6,0,0,0-1.8,1.5v0c0,.91.81,1.21,1.77,1.49.65.18,1.45.4,1.45,1s-.51,1-1.23,1a3.26,3.26,0,0,1-1.9-.67Z" transform="translate(-9.31 -33.74)"/><path class="cls-1" d="M331.1,109.37a2.9,2.9,0,1,1,2.22-4.8l-.55.58a2.24,2.24,0,0,0-1.68-.84,2.17,2.17,0,0,0,.05,4.32,2.28,2.28,0,0,0,1.69-.82l.53.49A2.86,2.86,0,0,1,331.1,109.37Z" transform="translate(-9.31 -33.74)"/><path class="cls-1" d="M331.1,109.46a3,3,0,0,1,0-6,3,3,0,0,1,2.28,1l.05.06-.66.7-.06-.06a2.18,2.18,0,0,0-1.62-.81,2,2,0,0,0-1.9,2.07,2,2,0,0,0,1.95,2.08,2.22,2.22,0,0,0,1.63-.8l.06-.06.65.6-.06.07A3,3,0,0,1,331.1,109.46Zm0-5.79a2.71,2.71,0,0,0-2,.84,2.86,2.86,0,0,0,0,3.95,2.74,2.74,0,0,0,2,.83,2.78,2.78,0,0,0,2.14-1l-.4-.37a2.33,2.33,0,0,1-1.7.79,2.16,2.16,0,0,1-2.12-2.25,2.14,2.14,0,0,1,2.07-2.24,2.3,2.3,0,0,1,1.68.79l.43-.45A2.76,2.76,0,0,0,331.1,103.67Z" transform="translate(-9.31 -33.74)"/><path class="cls-1" d="M335.05,104.76l-.25-.67a4.54,4.54,0,0,1,2-.46,2.07,2.07,0,0,1,2.36,2.23v3.38h-.79v-.83a2.45,2.45,0,0,1-2,1,1.86,1.86,0,0,1-2.06-1.73c0-1.18,1-1.81,2.36-1.81a5.86,5.86,0,0,1,1.71.24v-.19c0-1-.61-1.51-1.65-1.51A3.89,3.89,0,0,0,335.05,104.76Zm.09,2.83c0,.71.64,1.12,1.39,1.12a1.68,1.68,0,0,0,1.86-1.5v-.54a5.72,5.72,0,0,0-1.63-.23C335.72,106.44,335.14,106.89,335.14,107.59Z" transform="translate(-9.31 -33.74)"/><path class="cls-1" d="M336.37,109.45a1.94,1.94,0,0,1-2.15-1.82c0-1.19.92-1.89,2.45-1.89a5.89,5.89,0,0,1,1.62.21v-.08c0-.92-.55-1.43-1.56-1.43a3.78,3.78,0,0,0-1.65.4l-.08,0-.31-.84.07,0a4.73,4.73,0,0,1,2.05-.47,2.15,2.15,0,0,1,2.45,2.32v3.47h-1v-.69A2.51,2.51,0,0,1,336.37,109.45Zm.3-3.54c-1.43,0-2.28.64-2.28,1.72a1.77,1.77,0,0,0,2,1.64,2.36,2.36,0,0,0,1.94-.91l.15-.21v1h.63v-3.3c0-1.41-.79-2.15-2.28-2.15a4.51,4.51,0,0,0-1.9.42l.18.52a3.93,3.93,0,0,1,1.64-.38,1.52,1.52,0,0,1,1.73,1.6v.3l-.1,0A5.86,5.86,0,0,0,336.67,105.91Zm-.13,2.88c-.88,0-1.48-.49-1.48-1.2s.63-1.24,1.7-1.24a5.83,5.83,0,0,1,1.65.24l.06,0v.6A1.74,1.74,0,0,1,336.54,108.79Zm.22-2.27c-1,0-1.53.4-1.53,1.07s.68,1,1.31,1a1.58,1.58,0,0,0,1.76-1.41v-.47A5.41,5.41,0,0,0,336.76,106.52Z" transform="translate(-9.31 -33.74)"/><path class="cls-1" d="M347.28,103.58a2,2,0,0,1,2.06,2.23v3.43h-.83V106c0-1.08-.54-1.68-1.44-1.68a1.56,1.56,0,0,0-1.53,1.72v3.19h-.81V106c0-1-.55-1.65-1.43-1.65a1.6,1.6,0,0,0-1.54,1.75v3.16h-.83V103.7h.83v.93a2,2,0,0,1,1.79-1,1.89,1.89,0,0,1,1.78,1.11A2.2,2.2,0,0,1,347.28,103.58Z" transform="translate(-9.31 -33.74)"/><path class="cls-1" d="M349.42,109.33h-1V106c0-1-.5-1.59-1.36-1.59a1.45,1.45,0,0,0-1.44,1.63v3.28h-1V106c0-1-.5-1.56-1.34-1.56a1.52,1.52,0,0,0-1.45,1.66v3.25h-1v-5.71h1v.75a2,2,0,0,1,1.7-.87,2,2,0,0,1,1.79,1,2.24,2.24,0,0,1,1.94-1,2.07,2.07,0,0,1,2.14,2.31Zm-.82-.17h.65v-3.35a1.91,1.91,0,0,0-2-2.14,2.12,2.12,0,0,0-1.88,1.07l-.08.12-.07-.13a1.79,1.79,0,0,0-1.7-1.06,2,2,0,0,0-1.72,1l-.16.24v-1.13H341v5.37h.65v-3.08a1.68,1.68,0,0,1,1.63-1.83c.94,0,1.51.66,1.51,1.73v3.18h.65v-3.11a1.64,1.64,0,0,1,1.61-1.8c1,0,1.53.66,1.53,1.76Z" transform="translate(-9.31 -33.74)"/><path class="cls-1" d="M353.58,108.65a2.28,2.28,0,0,0,1.74-.78l.52.46a2.86,2.86,0,0,1-2.28,1,2.9,2.9,0,0,1-.11-5.79,2.64,2.64,0,0,1,2.58,2.94,2.44,2.44,0,0,1,0,.26h-4.39A1.93,1.93,0,0,0,353.58,108.65Zm1.62-2.48a1.83,1.83,0,0,0-1.77-1.89,1.91,1.91,0,0,0-1.8,1.89Z" transform="translate(-9.31 -33.74)"/><path class="cls-1" d="M353.56,109.46a2.86,2.86,0,0,1-2.86-3,2.81,2.81,0,0,1,2.75-3,2.71,2.71,0,0,1,2.67,3,2.62,2.62,0,0,1,0,.27v.07h-4.38a1.85,1.85,0,0,0,1.86,1.71,2.18,2.18,0,0,0,1.68-.76l.06-.06.64.57-.06.07A2.92,2.92,0,0,1,353.56,109.46Zm-.11-5.79a2.64,2.64,0,0,0-2.57,2.81,2.69,2.69,0,0,0,2.68,2.81,2.77,2.77,0,0,0,2.16-1l-.39-.35a2.36,2.36,0,0,1-1.75.75,2,2,0,0,1-2-1.95v-.1h4.41v-.17A2.55,2.55,0,0,0,353.45,103.67Zm1.84,2.58h-3.76v-.09a2,2,0,0,1,1.89-2,1.9,1.9,0,0,1,1.85,2Zm-3.57-.17h3.38a1.72,1.72,0,0,0-1.67-1.71A1.8,1.8,0,0,0,351.72,106.08Z" transform="translate(-9.31 -33.74)"/><path class="cls-1" d="M358.31,109.24h-.83V103.7h.83v1.45a2.36,2.36,0,0,1,2.26-1.54v.89h-.07c-1.21,0-2.19.86-2.19,2.54Z" transform="translate(-9.31 -33.74)"/><path class="cls-1" d="M358.39,109.33h-1v-5.71h1v1.17a2.38,2.38,0,0,1,2.18-1.27h.09v1.06h-.16c-1.28,0-2.11,1-2.11,2.46Zm-.82-.17h.65V107c0-1.59.89-2.62,2.26-2.63v-.72h0a2.29,2.29,0,0,0-2.09,1.49l-.17.38v-1.77h-.65Z" transform="translate(-9.31 -33.74)"/><path class="cls-1" d="M361.88,104.76l-.25-.67a4.59,4.59,0,0,1,2-.46,2.07,2.07,0,0,1,2.36,2.23v3.38h-.8v-.83a2.43,2.43,0,0,1-2,1,1.86,1.86,0,0,1-2.07-1.73c0-1.18,1-1.81,2.37-1.81a5.79,5.79,0,0,1,1.7.24v-.19c0-1-.61-1.51-1.65-1.51A3.92,3.92,0,0,0,361.88,104.76Zm.1,2.83c0,.71.64,1.12,1.39,1.12a1.67,1.67,0,0,0,1.85-1.5v-.54a5.65,5.65,0,0,0-1.62-.23C362.56,106.44,362,106.89,362,107.59Z" transform="translate(-9.31 -33.74)"/><path class="cls-1" d="M363.21,109.45a1.94,1.94,0,0,1-2.16-1.82c0-1.19.92-1.89,2.46-1.89a6,6,0,0,1,1.62.21v-.08c0-.92-.56-1.43-1.57-1.43a3.7,3.7,0,0,0-1.64.4l-.09,0-.3-.84.07,0a4.69,4.69,0,0,1,2-.47,2.15,2.15,0,0,1,2.44,2.32v3.47h-1v-.69A2.52,2.52,0,0,1,363.21,109.45Zm.3-3.54c-1.43,0-2.28.64-2.28,1.72a1.76,1.76,0,0,0,2,1.64,2.38,2.38,0,0,0,1.94-.91l.15-.21v1h.62v-3.3a2,2,0,0,0-2.27-2.15,4.52,4.52,0,0,0-1.91.42l.19.52a3.84,3.84,0,0,1,1.63-.38,1.52,1.52,0,0,1,1.74,1.6v.3l-.11,0A5.83,5.83,0,0,0,363.51,105.91Zm-.14,2.88c-.87,0-1.48-.49-1.48-1.2s.64-1.24,1.7-1.24a5.9,5.9,0,0,1,1.66.24l.06,0v.6A1.75,1.75,0,0,1,363.37,108.79Zm.22-2.27c-.95,0-1.53.4-1.53,1.07s.68,1,1.31,1a1.59,1.59,0,0,0,1.77-1.41v-.47A5.48,5.48,0,0,0,363.59,106.52Z" transform="translate(-9.31 -33.74)"/><path class="cls-1" d="M370.72,109.36a2.52,2.52,0,0,1-2.13-1.18v1.06h-.82v-7.82h.82v3.4a2.5,2.5,0,0,1,2.13-1.24,2.9,2.9,0,0,1,0,5.78Zm-.15-5a2.15,2.15,0,0,0,0,4.3,2,2,0,0,0,1.95-2.14A2,2,0,0,0,370.57,104.32Z" transform="translate(-9.31 -33.74)"/><path class="cls-1" d="M370.72,109.45a2.52,2.52,0,0,1-2-1v.89h-1v-8h1v3.22a2.46,2.46,0,0,1,2-1,3,3,0,0,1,0,6Zm-2.21-1.55.16.23a2.39,2.39,0,0,0,2.05,1.14,2.81,2.81,0,0,0,0-5.6,2.38,2.38,0,0,0-2.05,1.19l-.16.24v-3.6h-.66v7.66h.66Zm2.06.81a2.24,2.24,0,0,1,0-4.47,2.07,2.07,0,0,1,2,2.24A2,2,0,0,1,370.57,108.71Zm0-4.3a2.07,2.07,0,0,0,0,4.13,1.89,1.89,0,0,0,1.86-2.06A1.91,1.91,0,0,0,370.57,104.41Z" transform="translate(-9.31 -33.74)"/><path class="cls-1" d="M377.33,108.65a2.29,2.29,0,0,0,1.75-.78l.52.46a2.88,2.88,0,0,1-2.29,1,2.9,2.9,0,0,1-.1-5.79,2.64,2.64,0,0,1,2.58,2.94,2.44,2.44,0,0,1,0,.26h-4.4A1.94,1.94,0,0,0,377.33,108.65Zm1.62-2.48a1.82,1.82,0,0,0-1.77-1.89,1.92,1.92,0,0,0-1.8,1.89Z" transform="translate(-9.31 -33.74)"/><path class="cls-1" d="M377.31,109.46a2.86,2.86,0,0,1-2.85-3,2.81,2.81,0,0,1,2.75-3c1.59,0,2.66,1.21,2.66,3a2.62,2.62,0,0,1,0,.27v.07h-4.37a1.85,1.85,0,0,0,1.85,1.71,2.21,2.21,0,0,0,1.69-.76l.06-.06.64.57-.06.07A2.94,2.94,0,0,1,377.31,109.46Zm-.1-5.79a2.64,2.64,0,0,0-2.58,2.81,2.69,2.69,0,0,0,2.68,2.81,2.77,2.77,0,0,0,2.16-1l-.38-.35a2.36,2.36,0,0,1-1.76.75,2,2,0,0,1-2-1.95v-.1h4.41v-.17A2.55,2.55,0,0,0,377.21,103.67Zm1.84,2.58h-3.76v-.09a2,2,0,0,1,1.88-2,1.9,1.9,0,0,1,1.86,2Zm-3.57-.17h3.38a1.72,1.72,0,0,0-1.68-1.71A1.8,1.8,0,0,0,375.48,106.08Z" transform="translate(-9.31 -33.74)"/><path class="cls-1" d="M386.51,108.15,388,103.7h.86l-1.95,5.59h-.72l-1.49-4.38-1.5,4.38h-.73l-1.94-5.59h.88l1.46,4.45,1.49-4.47H385Z" transform="translate(-9.31 -33.74)"/><path class="cls-1" d="M386.94,109.37h-.84l0-.06-1.41-4.13-1.44,4.19h-.85l0-.06-2-5.69h1.06l1.4,4.26,1.43-4.29h.81l1.43,4.29,1.4-4.26h1l0,.11Zm-.72-.17h.6l1.89-5.41H388l-1.51,4.63L385,103.77h-.56l-1.55,4.65-1.52-4.63h-.7l1.88,5.41h.61l1.56-4.55Z" transform="translate(-9.31 -33.74)"/><path class="cls-1" d="M390.32,104.76l-.25-.67a4.54,4.54,0,0,1,2-.46,2.07,2.07,0,0,1,2.36,2.23v3.38h-.79v-.83a2.45,2.45,0,0,1-2,1,1.86,1.86,0,0,1-2.06-1.73c0-1.18,1-1.81,2.36-1.81a5.86,5.86,0,0,1,1.71.24v-.19c0-1-.61-1.51-1.65-1.51A3.89,3.89,0,0,0,390.32,104.76Zm.09,2.83c0,.71.64,1.12,1.4,1.12a1.67,1.67,0,0,0,1.85-1.5v-.54a5.72,5.72,0,0,0-1.63-.23C391,106.44,390.41,106.89,390.41,107.59Z" transform="translate(-9.31 -33.74)"/><path class="cls-1" d="M391.64,109.45a1.94,1.94,0,0,1-2.15-1.82c0-1.19.92-1.89,2.45-1.89a5.89,5.89,0,0,1,1.62.21v-.08c0-.94-.54-1.43-1.56-1.43a3.78,3.78,0,0,0-1.65.4l-.08,0L390,104l.07,0a4.73,4.73,0,0,1,2.05-.47,2.15,2.15,0,0,1,2.45,2.32v3.47h-1v-.69A2.51,2.51,0,0,1,391.64,109.45Zm.3-3.54c-1.42,0-2.28.64-2.28,1.72a1.77,1.77,0,0,0,2,1.64,2.36,2.36,0,0,0,1.94-.91l.15-.21v1h.63v-3.3c0-1.41-.79-2.15-2.28-2.15a4.51,4.51,0,0,0-1.9.42l.18.52a3.93,3.93,0,0,1,1.64-.38,1.52,1.52,0,0,1,1.73,1.6v.3l-.1,0A5.86,5.86,0,0,0,391.94,105.91Zm-.14,2.88c-.87,0-1.47-.49-1.47-1.2s.63-1.24,1.7-1.24a5.83,5.83,0,0,1,1.65.24l.07,0v.6A1.76,1.76,0,0,1,391.8,108.79Zm.23-2.27c-1,0-1.53.4-1.53,1.07s.68,1,1.3,1a1.59,1.59,0,0,0,1.77-1.41v-.47A5.41,5.41,0,0,0,392,106.52Z" transform="translate(-9.31 -33.74)"/><path class="cls-1" d="M401.12,109.24h-1l-2-2.58L397,107.8v1.44h-.83v-7.82H397v5.4l3-3.12h1l-2.33,2.38Z" transform="translate(-9.31 -33.74)"/><path class="cls-1" d="M401.3,109.33h-1.2l0,0-1.92-2.5-1,1v1.5h-1v-8h1v5.28l2.86-3h1.27l-2.41,2.47Zm-1.12-.17H401l-2.34-3.09.05,0,2.18-2.23h-.78L396.94,107V101.5h-.65v7.66h.65v-1.4l0,0,1.19-1.21Z" transform="translate(-9.31 -33.74)"/><path class="cls-1" d="M402.33,102.49v-.91h.94v.91Zm.05,6.75V103.7h.83v5.54Z" transform="translate(-9.31 -33.74)"/><path class="cls-1" d="M403.29,109.33h-1v-5.71h1Zm-.82-.17h.65v-5.37h-.65Zm.89-6.58h-1.12v-1.09h1.12Zm-.95-.18h.77v-.73h-.77Z" transform="translate(-9.31 -33.74)"/><path class="cls-1" d="M406,109.24h-.82V103.7H406v1a2.12,2.12,0,0,1,1.9-1.09A2,2,0,0,1,410,105.8v3.44h-.82V106a1.49,1.49,0,0,0-1.54-1.68,1.63,1.63,0,0,0-1.66,1.74Z" transform="translate(-9.31 -33.74)"/><path class="cls-1" d="M410.06,109.33h-1V106a1.4,1.4,0,0,0-1.45-1.59,1.54,1.54,0,0,0-1.57,1.65v3.26h-1v-5.71h1v.77a2.15,2.15,0,0,1,1.81-.89,2.11,2.11,0,0,1,2.21,2.3Zm-.83-.17h.66V105.8a1.94,1.94,0,0,0-2-2.13,2,2,0,0,0-1.82,1l-.16.27v-1.19h-.66v5.37h.66v-3.09a1.7,1.7,0,0,1,1.74-1.82,1.55,1.55,0,0,1,1.62,1.76Z" transform="translate(-9.31 -33.74)"/><path class="cls-1" d="M414.19,111a4.38,4.38,0,0,1-2.52-.77l.38-.64a3.51,3.51,0,0,0,2.13.7,1.82,1.82,0,0,0,2-2v-.65a2.61,2.61,0,0,1-2.17,1.16,2.62,2.62,0,0,1,0-5.23,2.59,2.59,0,0,1,2.16,1.12v-1H417v4.58A2.52,2.52,0,0,1,414.19,111Zm0-6.67a1.83,1.83,0,0,0-1.92,1.88,1.88,1.88,0,0,0,1.92,1.9,1.89,1.89,0,1,0,0-3.78Z" transform="translate(-9.31 -33.74)"/><path class="cls-1" d="M414.19,111.07a4.42,4.42,0,0,1-2.57-.79l-.06,0,.46-.79.08.06a3.53,3.53,0,0,0,2.08.69,1.74,1.74,0,0,0,1.93-1.89v-.41a2.68,2.68,0,0,1-4.78-1.68A2.67,2.67,0,0,1,414,103.5a2.64,2.64,0,0,1,2.08,1v-.84h1v4.66A2.59,2.59,0,0,1,414.19,111.07Zm-2.4-.89a4.23,4.23,0,0,0,2.4.71,2.43,2.43,0,0,0,2.73-2.61v-4.49h-.65V105l-.16-.21a2.53,2.53,0,0,0-4.61,1.46,2.47,2.47,0,0,0,2.52,2.52,2.51,2.51,0,0,0,2.1-1.14l.16-.2v.91a1.91,1.91,0,0,1-2.1,2.06,3.67,3.67,0,0,1-2.11-.67Zm2.39-2a2,2,0,0,1-2-2,1.92,1.92,0,0,1,2-2,2,2,0,1,1,0,3.94Zm0-3.77a1.73,1.73,0,0,0-1.83,1.79,1.78,1.78,0,0,0,1.83,1.81,1.81,1.81,0,1,0,0-3.6Z" transform="translate(-9.31 -33.74)"/><polygon class="cls-2" points="213.69 43.67 209 43.67 209 15.65 210.72 15.65 210.72 41.95 211.96 41.95 211.96 15.53 216.65 15.53 216.65 43.59 214.92 43.59 214.92 17.25 213.69 17.25 213.69 43.67"/><polygon class="cls-1" points="207.55 29.35 207.55 29.69 207.48 29.8 198.55 43.7 196.25 43.7 197.23 42.17 205.35 29.52 196.36 15.55 198.68 15.55 198.72 15.59 207.55 29.35"/><polygon class="cls-1" points="203.42 29.35 203.42 29.69 203.36 29.8 194.43 43.7 192.11 43.7 193.11 42.17 201.23 29.52 192.22 15.55 194.56 15.55 194.59 15.59 203.42 29.35"/><polygon class="cls-3" points="181.59 43.67 176.9 43.67 176.9 17.25 175.66 17.25 175.66 43.59 173.94 43.59 173.94 15.53 178.62 15.53 178.62 41.95 179.86 41.95 179.86 15.65 181.59 15.65 181.59 43.67"/><polygon class="cls-1" points="194.34 43.7 192.03 43.7 192 43.66 183.04 29.69 183.04 29.35 183.06 29.33 191.9 15.55 194.23 15.55 194.13 15.71 185.23 29.52 194.34 43.7"/><polygon class="cls-1" points="198.47 43.7 196.16 43.7 196.13 43.66 187.16 29.69 187.16 29.35 187.18 29.33 196.03 15.55 198.36 15.55 198.25 15.71 189.36 29.52 198.47 43.7"/><path class="cls-4" d="M49.36,59.47a5,5,0,0,0,0-4.29,3.31,3.31,0,0,0-1.26-1.26,5.39,5.39,0,0,0-1.8-.61,12.54,12.54,0,0,0-2-.16H39.66V61.5h4.61a11.51,11.51,0,0,0,2-.17,5.38,5.38,0,0,0,1.8-.6A3.31,3.31,0,0,0,49.36,59.47Z" transform="translate(-9.31 -33.74)"/><path class="cls-4" d="M139.36,55.75A9.65,9.65,0,0,0,123.17,59a11.84,11.84,0,0,0,0,8,9.63,9.63,0,0,0,2,3.28,9.73,9.73,0,0,0,14.21,0,10,10,0,0,0,2-3.28,12,12,0,0,0,0-8A10,10,0,0,0,139.36,55.75Z" transform="translate(-9.31 -33.74)"/><polygon class="cls-2" points="22.68 42.58 16.64 42.58 16.56 42.48 4.73 29.8 4.73 42.58 0.57 42.58 0.57 16.01 4.73 16.01 4.73 27.06 16.04 16.01 21.88 16.01 9.01 28.32 22.68 42.58"/><path class="cls-2" d="M47.74,64.43A7,7,0,0,0,50,63.67,7.55,7.55,0,0,0,52.11,62a7.27,7.27,0,0,0,1.33-2.2,6.9,6.9,0,0,0,.46-2.51,9.72,9.72,0,0,0-.38-2.59,6.22,6.22,0,0,0-1.38-2.48,7.21,7.21,0,0,0-2.65-1.8,11.05,11.05,0,0,0-4.24-.7H35.81V76.32H40V64.9h3.41l6.49,11.27.1.15h5.16Zm-3.47-3.26H40v-7.7h4.29a11.94,11.94,0,0,1,2,.17,4.75,4.75,0,0,1,1.69.56,2.87,2.87,0,0,1,1.14,1.15,3.89,3.89,0,0,1,.43,2,4,4,0,0,1-.43,2,3,3,0,0,1-1.14,1.14,5.43,5.43,0,0,1-1.69.57A11.76,11.76,0,0,1,44.27,61.17Z" transform="translate(-9.31 -33.74)"/><rect class="cls-2" x="51.81" y="16.01" width="4.17" height="26.57"/><path class="cls-2" d="M90.05,68.64a8.07,8.07,0,0,1-.75,3.52,7.79,7.79,0,0,1-2,2.63,9.18,9.18,0,0,1-3,1.63,11.3,11.3,0,0,1-3.62.57,12.88,12.88,0,0,1-4.83-.91,8,8,0,0,1-3.7-2.82L72,73l3.39-2.92.21.3a5.49,5.49,0,0,0,2.31,2,6.31,6.31,0,0,0,4.61.38A4.89,4.89,0,0,0,84.09,72a4.15,4.15,0,0,0,1.14-1.26,3.23,3.23,0,0,0,.43-1.7,2.44,2.44,0,0,0-.83-2,8,8,0,0,0-2.26-1.27c-1-.35-2-.71-3.06-1a12.34,12.34,0,0,1-3.16-1.41,7.19,7.19,0,0,1-3.47-6.65,7.15,7.15,0,0,1,.52-2.53A7.44,7.44,0,0,1,75,51.67a9.12,9.12,0,0,1,2.83-1.84A10.35,10.35,0,0,1,82,49.09a14.38,14.38,0,0,1,4.16.6,7.33,7.33,0,0,1,3.56,2.49l.19.24-3.36,3.06-.21-.33a4.49,4.49,0,0,0-1.74-1.53A5.63,5.63,0,0,0,82,53a6.39,6.39,0,0,0-2.32.36,4.56,4.56,0,0,0-1.45.91,3.31,3.31,0,0,0-.74,1.19,3.8,3.8,0,0,0-.22,1.17,3,3,0,0,0,.84,2.3,7.27,7.27,0,0,0,2.26,1.36,28.58,28.58,0,0,0,3,1,13.56,13.56,0,0,1,3.16,1.27A7.47,7.47,0,0,1,89,64.77,6.63,6.63,0,0,1,90.05,68.64Z" transform="translate(-9.31 -33.74)"/><polygon class="cls-2" points="105.42 16.01 105.42 19.95 97.08 19.95 97.08 42.58 92.91 42.58 92.91 19.95 84.56 19.95 84.56 16.01 105.42 16.01"/><path class="cls-2" d="M144,57.53a13.86,13.86,0,0,0-2.86-4.42,12.82,12.82,0,0,0-4.38-3,15.06,15.06,0,0,0-11.15,0,13.11,13.11,0,0,0-4.38,3,13.67,13.67,0,0,0-2.85,4.42,15.25,15.25,0,0,0,0,11A13.67,13.67,0,0,0,121.21,73a13.07,13.07,0,0,0,4.38,3,15.06,15.06,0,0,0,11.15,0,12.68,12.68,0,0,0,4.38-3A13.75,13.75,0,0,0,144,68.55a15.25,15.25,0,0,0,0-11ZM131.16,73a9.16,9.16,0,0,1-6.86-2.94,9.38,9.38,0,0,1-1.92-3.17,11.66,11.66,0,0,1,0-7.79A9.58,9.58,0,0,1,124.3,56,9.07,9.07,0,0,1,131.16,53,9,9,0,0,1,138,56,9.66,9.66,0,0,1,140,59.14a11.66,11.66,0,0,1,0,7.79A9.36,9.36,0,0,1,138,70.1a9,9,0,0,1-3,2.14A9.17,9.17,0,0,1,131.16,73Z" transform="translate(-9.31 -33.74)"/><polygon class="cls-2" points="145.73 19.95 145.73 27.43 157.64 27.43 157.64 31.38 145.73 31.38 145.73 42.58 141.56 42.58 141.56 16.01 158.51 16.01 158.51 19.95 145.73 19.95"/><path class="cls-2" d="M265.74,72.06l-.2.25a10.56,10.56,0,0,1-1.05,1.19,10.77,10.77,0,0,1-2,1.55,13.85,13.85,0,0,1-3,1.35,12.43,12.43,0,0,1-4,.59,13.19,13.19,0,0,1-5.7-1.2,14.16,14.16,0,0,1-4.31-3.15,14.38,14.38,0,0,1-2.72-4.41,14.11,14.11,0,0,1-.93-5,15.56,15.56,0,0,1,1-5.66,13.39,13.39,0,0,1,2.83-4.51,12.92,12.92,0,0,1,4.38-3,14.63,14.63,0,0,1,5.61-1,13.86,13.86,0,0,1,5.16,1A9.88,9.88,0,0,1,265,53.24l.2.26-3.45,2.63-.19-.26a7.08,7.08,0,0,0-2.67-2.1,8,8,0,0,0-3.35-.74,9.14,9.14,0,0,0-3.83.79A9,9,0,0,0,248.76,56a10,10,0,0,0-1.89,3.23,11.82,11.82,0,0,0-.67,4,10.93,10.93,0,0,0,.63,3.77,9.23,9.23,0,0,0,1.85,3.12,8.53,8.53,0,0,0,2.93,2.12,9.59,9.59,0,0,0,3.92.77,7.87,7.87,0,0,0,3.78-.87,8.25,8.25,0,0,0,2.74-2.47l.2-.27Z" transform="translate(-9.31 -33.74)"/><polygon class="cls-2" points="285.31 42.59 280.69 42.59 276.51 32.83 271.97 21.65 267.51 32.45 273.34 32.45 274.86 36.16 265.99 36.16 264.87 39 263.29 42.59 258.63 42.59 258.83 42.13 270.32 16 273.95 16 274.02 16.19 285.31 42.59"/><path class="cls-2" d="M315.93,68.64a8.11,8.11,0,0,1-.75,3.52,7.79,7.79,0,0,1-2,2.63,9,9,0,0,1-3,1.63,11.17,11.17,0,0,1-3.62.57,12.88,12.88,0,0,1-4.83-.91,8,8,0,0,1-3.7-2.82l-.18-.24,3.39-2.92.21.3a5.49,5.49,0,0,0,2.31,2,6.31,6.31,0,0,0,4.61.38A4.89,4.89,0,0,0,310,72a4.29,4.29,0,0,0,1.14-1.26,3.29,3.29,0,0,0,.44-1.7,2.47,2.47,0,0,0-.83-2,7.84,7.84,0,0,0-2.28-1.27c-.94-.35-2-.69-3.05-1a12.12,12.12,0,0,1-3.15-1.41,7.17,7.17,0,0,1-3.48-6.65,7,7,0,0,1,.53-2.53,7.16,7.16,0,0,1,1.62-2.46,9,9,0,0,1,2.83-1.84,10.35,10.35,0,0,1,4.14-.74,14.28,14.28,0,0,1,4.16.6,7.33,7.33,0,0,1,3.56,2.49l.2.24-3.37,3.06-.21-.33a4.42,4.42,0,0,0-1.74-1.53,5.63,5.63,0,0,0-2.6-.59,6.39,6.39,0,0,0-2.32.36,4.24,4.24,0,0,0-1.43.91,3.12,3.12,0,0,0-.76,1.19,3.85,3.85,0,0,0-.22,1.17A3,3,0,0,0,304,59a7.27,7.27,0,0,0,2.26,1.36,28.06,28.06,0,0,0,3.05,1,13.67,13.67,0,0,1,3.15,1.27,7.47,7.47,0,0,1,2.47,2.21A6.65,6.65,0,0,1,315.93,68.64Z" transform="translate(-9.31 -33.74)"/><polygon class="cls-2" points="359.4 38.64 359.4 42.58 341.36 42.58 341.36 16.01 358.74 16.01 358.74 19.95 345.52 19.95 345.52 27.03 357.82 27.03 357.82 30.97 345.52 30.97 345.52 38.64 359.4 38.64"/><polygon class="cls-2" points="407.79 16.01 407.79 19.95 399.44 19.95 399.44 42.58 395.28 42.58 395.28 19.95 386.92 19.95 386.92 16.01 407.79 16.01"/><polygon class="cls-2" points="336.56 42.59 331.94 42.59 327.76 32.83 323.22 21.65 318.75 32.45 324.59 32.45 326.1 36.16 317.25 36.16 316.12 39 314.54 42.59 309.88 42.59 310.07 42.13 321.57 16 325.19 16 325.27 16.19 336.56 42.59"/><path class="cls-2" d="M387.17,64.43a7.15,7.15,0,0,0,2.27-.76A7.7,7.7,0,0,0,391.55,62a7.22,7.22,0,0,0,1.77-4.71,9.58,9.58,0,0,0-.37-2.59,6.08,6.08,0,0,0-1.37-2.48,7.38,7.38,0,0,0-2.67-1.8,10.94,10.94,0,0,0-4.22-.7h-9.45V76.32h4.17V64.9h3.4l6.51,11.27.1.15h5.15Zm-7.76-11h4.29a12.15,12.15,0,0,1,2,.17,4.88,4.88,0,0,1,1.69.56,3,3,0,0,1,1.13,1.15,3.88,3.88,0,0,1,.44,2,4,4,0,0,1-.44,2,3,3,0,0,1-1.13,1.14,5.61,5.61,0,0,1-1.69.57,12,12,0,0,1-2,.15h-4.29Z" transform="translate(-9.31 -33.74)"/><rect class="cls-1" x="49.47" y="66.78" width="0.65" height="10.42"/><rect class="cls-2" width="408.06" height="3.8"/><rect class="cls-2" y="55.46" width="408.06" height="3.8"/><rect class="cls-1" x="192.99" y="66.87" width="0.65" height="10.42"/><rect class="cls-1" x="310.41" y="66.87" width="0.65" height="10.42"/></svg>